<?xml version="1.0" encoding="utf-8"?>
<!-- Generator: Adobe Illustrator 16.0.0, SVG Export Plug-In . SVG Version: 6.00 Build 0)  -->
<!DOCTYPE svg PUBLIC "-//W3C//DTD SVG 1.1//EN" "http://www.w3.org/Graphics/SVG/1.1/DTD/svg11.dtd">
<svg version="1.1" id="Layer_1" xmlns="http://www.w3.org/2000/svg" xmlns:xlink="http://www.w3.org/1999/xlink" x="0px" y="0px"
	 width="46px" height="42px" viewBox="0 0 46 42" enable-background="new 0 0 46 42" xml:space="preserve">
<path id="Texas_1_" fill="#C12838" d="M-107.5,133.086l0.2-0.1l-0.2-0.201l-0.1-0.199v-0.502h0.199l0.101-0.1v-0.102l-0.101-0.199
	l-0.1-0.1l-0.101-0.301l-0.601-1l0.2-0.9l0.1-0.799l-0.199-2.5l-0.2-0.9v-0.5l0.2-1v-0.4l-0.2-0.5l0.2-0.5l0.101-1.199l0.399-0.4
	l-0.2,0.5l0.101,6.602l0.7,4.398l2.3,8v0.301l0.2,0.398l0.1,0.5l0.2,1.602l0.3,1l0.101,0.6v1.6l0.3,0.801l0.301,1.301v0.5
	l-0.2,0.398l-0.199-0.1l-0.2-0.5l-0.399-5.199l-0.2-0.4l-0.399-0.699l-0.2-0.699l-0.199-2l-0.2-0.5l-0.5-1l-0.199-0.602
	l-0.301-1.398l-0.1-0.301l-0.199-0.398l-0.2-0.5l-0.3-1.102l-0.3-0.699H-107.5z M-82.2,88.387l0.899-0.301v0.201h-0.101l-0.1,0.1
	h-0.1v0.1l-0.2,0.102l-0.399,0.398l-0.2,0.201l-0.6,0.199l-0.601,0.5l-0.301,0.301h-0.5v-0.102l1.301-1.199L-82.2,88.387
	L-82.2,88.387z M-49.4,65.887l1.301,0.5l-3.301,2.801l-1,0.398l-3.199,2.4l-0.4,0.5h-0.1l0.199-0.602l0.399-0.5l1-0.799l1.601-1
	l0.301-0.4v-0.4l0.199-0.1l0.301-0.102h0.3l0.101-0.199l0.899-0.699l0.2-0.4l0.1-0.1l0.5-0.201l0.301-0.199l0.101-0.301
	l-0.101-0.299l-0.399-0.102v-0.199h0.199v-0.199v0.199v-0.1l0.101-0.102l0.101,0.199h0.3h-0.199h0.199L-49.4,65.887z M-100,104.486
	l0.2,0.301l-0.3,0.199l-2.9,4.201l-2.199,4.1l-1.399,3.5l-0.5,2.199l-0.4,0.801l-0.199,0.398l-0.2,0.102l-0.199-0.201l0.199-0.398
	l0.399-2.801l0.801-1.6l0.2-1.1l0.102-0.301l0.398-0.9l0.102-0.299l0.199-0.5l0.5-0.602l0.5-0.699l-0.101-0.5l0.3-0.301l0.102-0.199
	l-0.101-0.301l-0.1-0.398l0.5,0.199l0.2,0.199l0.199,0.301h0.101l1.3-2.699l0.7-0.801l0.899-0.9l0.2-0.199l0.2-0.701l0.3-0.1H-100z
	 M-85.1,90.787v0.799l-0.101,0.201l-0.2,0.299v0.102l-1.699,0.799l-0.7,0.201l-0.8,0.5l-1.2,1.1l-2.2,1.1l-0.5,0.602l-1.199,0.898
	l-0.7,0.602l-0.3,0.299l-0.101,0.5H-95l0.101-0.5l0.2-0.5l0.2-0.4l0.301-0.199v-0.199l-0.2-0.301v-0.5l0.101-0.4l0.3-0.199h0.5
	l0.7-0.301h0.399l0.301-0.1l0.899-0.6l0.101-0.102l0.3-0.5l0.899-0.5l0.2-0.199l0.2-0.201l1.102-0.4l0.398-0.5l0.301-0.199h0.5
	l0.899,0.1l0.3-0.199l0.2-0.5l0.101-0.199l-0.101-0.5l0.101-0.102l0.199-0.1h0.301l0.101,0.301H-85.1z M-95.2,97.486l0.101,0.201
	l-0.101,0.299l-0.101,0.5v0.301l-2.101,2.199l-0.899,1.398l-0.8,0.9l-0.301,0.5l-0.199,0.5l-0.2-0.4l0.3-0.799l0.9-1.201
	l0.699-0.699l0.101-0.199l0.101-0.301v-0.1l-0.399-0.201v-0.1l1.3-2.301h0.3l0.2-0.199l0.101-0.301L-96,97.285l0.301-0.199l0.3,0.1
	L-95.2,97.486L-95.2,97.486z M-26.6,48.387l-0.4,0.801h-1.1l-0.2,0.1l-0.101,0.5l-0.199,0.5l-1.7,2.5l-0.101,1l0.5,0.9l1.2,1.398
	l0.399,0.801l-0.3,0.4h-0.301l-0.6-0.102h-3.2l-1,0.301l-0.6,0.299l-1.899,1.1l-2.601,1.102l-7.1,3.299l-0.801,0.602l-1.1,1.398
	l-0.5,0.301l-0.5-0.1l-0.102-0.301l0.2-0.301l1.7-1.799l0.6-0.301l0.5-0.1l0.301-0.102l0.199-0.1l0.2-0.102l0.7-0.799l0.2-0.102
	l0.199-0.1l1.101,0.1l0.399-0.1l0.301-0.199l0.1-0.5v-0.301l-0.2,0.199l-0.3,0.201l-0.5-0.201l-0.3-0.299l-0.4-0.102h-0.398l-3.2,1
	l-1.2,0.102h-0.3l-0.2-0.102l-0.199-0.199l0.1-0.199l0.2-0.102h0.3l0.301-0.199l0.3-0.301l0.3-0.898l0.301-0.9l0.3-1.199l0.2-0.602
	l-0.2-0.5v-0.299l-0.101-0.301l-0.399-0.102l-0.199-0.1l-0.1-0.5l-0.2-0.1h-0.199l-0.5,0.301l-0.8,0.398l-0.399,0.201l-0.1,0.199
	l-0.3,0.9l-0.3,0.801l-0.7,0.5l-0.7-0.301l-0.699-0.602l-0.699-0.398h-1.301l-0.1,0.1l0.3,0.398l0.2,0.102l0.2,0.1h0.5l0.1,0.102
	l0.102,0.199l-0.4,0.301l-0.1,0.5l0.1,0.398l0.8,0.4l-0.2,0.4l-0.3,0.5l-0.2,0.199l-0.198,0.699l0.698,0.5l1.7,0.5l-0.2,0.301
	l-0.198,0.301l-0.301,0.199l-0.399,0.1v0.1l0.398,0.301l0.102,0.4l0.1,0.398h0.5V63.98l-0.1-0.102v-0.1h0.1v-0.1l0.7,1l0.2,0.197
	h0.3l1,0.5h-0.2v0.102l-0.1,0.1l-0.3-0.299l-0.5-0.1l-0.4,0.1l-0.2,0.6l-0.1,0.5l-0.2,0.5l-0.4,0.199l-0.3-0.299h-0.2l-0.1,0.299
	l-0.2,0.301l-0.5,0.299h-0.3v0.4l-1.4,1.701l-0.5,0.4l-0.698,0.301l-0.2-0.4l-0.2-0.201h-0.4l-0.398-0.199l0.2,0.199l0.3,0.701
	l-0.2,0.5v0.6l0.2,1v0.801l-0.2,0.398l-1.6,1.301l-0.7,0.301l-1.2,1.398l-1.2,1l-0.2,0.201l-0.5,0.1l-0.399,0.1l-1.5,1.1
	l-2.602,1.701l-1,0.5l-1,0.199l-1,0.1l-1-0.1l-0.898,0.1l-3,1.201l0.1,0.299v0.201l-0.1,0.299v0.4l-0.102,0.1v0.102l0.102,0.1
	l0.1,0.1h0.2l0.1-0.1h0.102l3.1-1.799l0.8-0.4h0.8l-2.6,1.699l-1.5,0.801l-2.3,0.5l-1.4,1.1l-1.3,0.4l-1.5,0.9l-0.6,0.299l0.5-0.6
	l0.8-0.602l3.2-1.6l0.5-0.102l0.199-0.197l0.101-0.4l-0.101-0.4l-0.399-0.199h-0.5l-0.9,0.5l-0.3,0.1l-0.4,0.1l-1.398,0.701
	l-1,0.299h-0.5l0.1-0.398l0.4-0.199l1-0.201l0.398-0.299h0.102V84.48l-0.4-0.1l-0.3,0.1l-0.3,0.102h-0.8l-0.102-0.201l0.102-0.299
	l0.6-0.801l0.1-0.301l-0.198-0.1h-0.5l-0.302,0.1l-0.3,0.1l-0.5,0.301l0.102-0.301l-0.4,0.201l-0.7,0.699l-0.399,0.301l-0.399,0.1
	h-0.101V84.18l-0.101-0.299l-0.7-0.6l-0.1-0.301l0.2-0.301l0.1-0.301l-0.1-0.398l-0.4-0.4l-0.1,0.201l-0.2,0.1l-0.1,0.1l-0.4-0.699
	l-0.1-0.199h-0.101v0.398l0.102,0.4l0.198,0.4l0.102,0.199h0.2l0.198-0.199l0.2-0.102v0.5l-0.2,0.1l-0.1,0.1l-0.1,0.102v0.199
	l0.1,0.199v0.4l-0.1,0.398l0.3,0.201l0.8,0.199l-1.4,0.801l-0.698,0.299l-0.7,0.102l0.3-0.303h0.4l0.398-0.1l0.102-0.5l-0.2-0.5
	l-0.8,0.6l-0.2-0.6l-0.102-0.199h-0.3l-0.2,0.102l-0.3-0.102l-0.1-0.1h-0.4l-0.1-0.201v-0.299l-0.1-0.201l-0.102-0.4v-0.199
	l-0.1-0.102l-0.2-0.299l-0.2-0.201l-0.3-0.1l-0.3,0.1l-0.3,0.102l-0.101-0.1l-0.1-0.1l-0.3-0.102v0.602l0.1,0.5l0.2,0.398l0.7,0.801
	v0.199l0.1,0.301v0.199l-0.1,0.602l-0.101,0.199l0.2,0.301h0.2l0.3-0.301l0.2,0.1l0.7,0.5l0.398,0.201l0.2,0.1l0.1,0.199l0.2,0.201
	l0.102,0.5l-1.102,0.6h-0.2l0.102,0.4h0.398l0.4-0.201l0.2-0.199l0.7-0.201l0.8,0.303l0.7,0.6l0.1,0.6l-1.7,0.9l-0.398,0.1
	l-0.802,0.5l-0.3,0.102l-2.5,1.398l-0.398-0.398l-0.4,0.1l-0.2-0.201l-0.1-0.398l-0.102-0.9l-0.1-0.299l-0.2-0.201h-0.398
	l-0.102-0.1v-0.4l-0.1-0.199l-0.1-0.1l-0.302-0.201l-0.1-0.1l-0.4-0.602l-0.1-0.197l-0.2,0.1l-0.2,0.199l-0.1,0.301l0.1,0.1h0.2
	l0.5,0.4l0.2,0.299v0.4l-0.2,0.301l-0.398-0.201l-0.4-0.398l-0.4-0.199l-0.3,0.398l0.4,0.699l0.7,0.801l0.3,0.602l-0.102,0.5
	l-0.3,0.398l-0.1,0.5l0.5,0.9l-0.301,0.4l-0.8,0.398l-0.398,0.4l-0.8,1.1l-0.302,0.301l-0.8,0.199l-0.398,0.102l0.3-0.9l0.2-0.398
	l0.3-0.4l-0.3-0.5l0.198-0.5l0.2-0.4v-0.398h-0.3l-0.3,0.398l-0.601,0.801l0.301,0.301l0.1,0.398l-0.1,0.4l-0.301,0.5l-0.301,0.5
	l-0.3,0.1l-0.8-0.199l0.1-0.1l0.102-0.102l0.1-0.1v-0.1l-0.1-0.201l0.1-0.799l-0.1-0.4h-0.2l-0.3,0.5l-0.801,0.5l-0.899,0.4
	l-0.601,0.1l0.101-0.199l-0.2-0.201l-0.3-0.1h-0.2l-0.2,0.199l-0.1,0.301l0.1,0.301l0.3,0.1l-0.898,0.9l-0.5,0.6l0.2,0.199
	l0.5,0.102l0.398,0.199l0.4,0.301l0.2,0.299v0.301l-0.102,0.301v0.1l0.2-0.1l0.2-0.199l0.2-0.301l0.1-0.301v-0.4l0.3-0.4
	l1.102-0.398l0.3-0.5v-0.102l-0.101-0.1h0.101l0.2-0.102l0.199,0.201l0.101,0.299l-0.2,1l0.1,0.301v0.199l-0.1,0.102l-0.2,0.199
	l-0.2,0.301l-0.3,0.699h-0.2v-0.199l-0.898,1.5l-1.8,2.6l-0.5,0.4l-0.602-0.102v-0.199h0.5l-0.3-0.4l-0.3-0.4l-0.3-0.299l-0.4-0.1
	h-0.5l-0.9,0.398h-0.6l0.2-0.1v-0.201l0.1-0.199l-0.6,0.199l-1.3-0.1l-0.602,0.1h-0.1l-0.101,0.301h-0.3l-0.199-0.1l-0.1-0.1v-0.102
	l-0.1-0.199h-0.3l-0.4,0.102l0.4,0.699l0.398,0.301l0.5,0.1l0.8-0.1l0.2,0.1h0.3l0.2-0.1l0.2-0.201l0.1,0.4l-0.198,0.699l0.1,0.301
	l-0.2,0.199l0.601,0.699l0.399,0.4l2,0.801l0.101,0.4v0.398l-0.301,0.4l-0.199,0.299l-0.199,0.201v0.299l-0.102,0.6l-0.1,0.201
	l-0.7,1.299l-0.399,1.102l-0.101,0.5l-0.1,0.301l-0.3,0.299l-1,2.701l-0.102,0.5l-0.2,0.199l-1.5,0.6l-0.5,0.5l-0.3,0.102
	l-0.5-0.303l0.9-0.398l0.3-0.299h-0.2v-0.102l-0.1-0.1l-0.102-0.102h0.7l0.2-0.1l0.2-0.199v-0.1h-0.101l-0.199-0.102v0.102h-0.2
	l-0.101-0.102l-0.101-0.301v-0.5l0.101-0.5l-0.399,0.201l-0.5,0.5l-0.3,0.199l0.1,0.4l-0.2,0.1l-0.2,0.1l-0.398,0.301l-0.101-0.4
	l-0.198,0.1l-0.5,0.602l0.1,0.199v0.102l-0.1,0.199h-0.301l-0.3-0.102l-0.1-0.1v-0.199l-0.101-0.301l-1.699-2.602l-0.602-0.6
	l-0.699-0.5l0.101,0.6l0.7,0.803l0.3,0.5h-0.4l0.8,0.898l0.302,0.5l-0.5,0.199l0.1,0.201v0.1l0.1,0.102l0.4-0.201l0.3,0.1l0.2,0.301
	l-0.3,0.301l-0.602,0.199l-0.5-0.1l-0.5-0.1l-0.6-0.102l0.3,0.5l0.5,0.199l1.2-0.1l0.5,0.1l0.4,0.201l0.3,0.199l0.5,0.199l1.2,0.301
	l0.5,0.1l0.5-0.199l0.398-0.301l1.5-0.5l0.2,0.4l-0.1,0.301l-0.102,0.299l-0.3,0.1l0.101,0.303v0.398l-0.101,0.5l-0.1,0.199
	l-0.2,0.1l0.1,0.4l0.102,0.4l0.1,0.301l-0.2,0.299l-0.3,0.201l-0.399,0.1l-0.3,0.1v0.1l0.2,0.301l0.102,0.4l-0.2,0.199l0.2,0.699
	v0.4l-0.302,0.199l-1.3,0.1l-0.2,0.102l-0.1,0.299l0.1,1.1l0.102,0.5l0.2,0.301l0.198,0.301l1,0.5l0.302,0.301l-0.302,0.5l-1-1
	l-0.3-0.102l-0.1,0.301l-0.2,0.398v0.9l0.1,0.301l0.302,0.1h0.3l0.398,0.102l0.302,0.299l0.1,0.4l0.1,0.398l0.2,1.102l0.5,1.699
	l0.2,1.699l0.5,1.701l0.2,0.799l-0.102-0.199l-0.198-0.199v-0.1l-0.2,0.299l-0.2,0.201l-0.6,0.199l0.8,0.201v0.299l-0.2,0.4
	l-0.1,0.699v0.301h0.3l0.5,0.1l0.1,0.299v0.4l0.1,0.301h0.2l0.5,0.1l0.102,0.102v0.199l-0.2,0.5l0.1,0.1l0.102,0.1l0.198-0.1
	l0.102-0.1v-0.1l0.1-0.201l0.2,0.201l0.1,0.102l-0.1,0.197l-0.2,0.201l-0.2,0.5v0.602l0.2,0.197h0.2l0.2-0.1h0.1l0.2,0.1l0.2,0.303
	l-0.102,0.197l-0.198,0.201l-0.102,0.199l0.102,0.301l0.1,0.199l0.3,0.6l-0.1,0.5l-0.1,0.801l0.101,0.6l0.3,0.301l0.1,0.102l0.2,0.1
	l0.2,0.1l0.3,0.102h0.602l0.3,0.1l0.3,0.1l-0.1,0.4l-0.102,0.199l-0.3,0.1l-0.3-0.199v0.5l-0.3,0.602v0.299l0.1,0.4v0.199l0.2,0.102
	l0.2,0.1h0.1v-0.1l0.1-0.201l0.602-0.199l0.2-0.201l0.198-0.197l0.102-0.4v-0.5l0.2-0.4l0.198-0.1h0.302l0.198,0.699v0.801
	l0.102,1.1v0.199l-1.602,0.102l-1.1-0.102l-0.3,0.102l-0.101,0.398l-0.399,0.4l-0.601,0.201l-0.399-0.303l-0.5,0.4l-0.101,0.1
	l0.101,0.5l0.1,0.602v0.5l-0.5,0.201l-0.2-0.102l-0.1-0.201l-0.1-0.197l-0.102-0.102h-0.199l-0.101,0.102v0.197l-0.1,0.102
	l-0.5-0.102l-0.2-0.398l-0.102-0.4l-0.198-0.199h-0.5l-0.4-0.1l-0.3-0.201l-0.5-0.299l-1-1l-0.7-0.4l-0.2-0.301l-0.199-0.398
	l-0.199-0.4l-0.4-0.299l-0.5-0.201l-0.4-0.1l-2-0.199l-0.398-0.102v-0.4l-0.5-0.102l-1.7-0.1l-1.5,0.201l-1.3-0.201h-0.4
	l-0.699,0.301l-0.5,0.199l-0.199-0.1l-0.2-0.602l-0.5-0.199l-1.1,0.301l-0.801-0.102l-0.8-0.201l-1.8-1l-0.2-0.197l-0.6-0.9
	l-0.102-0.201h-0.6l-0.3-0.1v-0.199l0.199-0.5l-0.601-0.201l-0.7-0.5l-0.699-0.199l-0.399,0.4l-0.4-0.6l-0.699-0.201l-0.699-0.199
	l-0.7-0.4l-1.3,0.5l-0.301-0.1l-0.301-0.201l-0.5-0.398l-0.1-0.102h-0.2l-0.1-0.199l0.3-0.301l-0.2-0.199l-0.3-0.199h-0.6l0.101-0.4
	l-0.2-0.299l-0.8-0.5l-0.3-0.5l-0.2-0.102h-0.2l-0.1,0.102l-0.2,0.1l-0.3-0.201l-0.102,0.201h-0.199l-0.199-0.1l-0.301-0.102
	l-0.5,0.102l-0.801-0.701l-0.398,0.4l-0.2-0.4l-0.2-0.199h-0.6l-0.4,0.1l-0.1,0.102l-0.102-0.102l-0.199-0.199l-0.101-0.102h-0.899
	l-0.399-0.1l-0.5-0.4v-0.299l0.1-0.301l0.2-0.299l0.101-0.301v-0.301l-0.199-0.801l-0.301-0.299l-0.601-0.201l-0.6-0.199l-0.102-0.6
	l-0.1-1.301l-0.101-0.4l-0.801-2.799l-0.199-1.201l-0.301-1.1l-0.398-0.5l-0.301-0.4l-0.301-0.398l-0.699-0.9l-0.301-0.4
	l-0.898-0.799l-0.2-0.201l-0.101-0.299v-0.801l-0.101-0.199h-0.2l-0.199-0.1h-0.199l-0.4-0.301v-0.201l-0.399-0.602l0.399-0.799
	l0.101-0.201v-0.199l-0.101-0.199l-0.1-0.199l-0.102-0.102l0.102-0.5l0.398-1.1l0.102-0.5v-0.5l-0.2-0.5l-0.2-0.4l-0.3-0.398h-0.1
	l-0.301-0.201v-0.1l-0.1-0.199l-0.101-0.102l-0.699-0.301l0.199-0.299l0.399-0.4l0.101-0.199v-0.301l0.199-0.301v-0.5l0.301-0.6
	v-0.299l0.101-1v-0.102l-0.1-0.4l-0.101-0.199l-0.1-0.102h-0.4l-0.1-0.1v-0.301l0.1-0.6v-1l-0.2-0.4l-0.398-0.4l-0.5-0.299
	l-0.301-0.1l-0.199-0.102l-0.2-0.5l-0.3-0.1h-0.2l-0.5,0.299h-0.3l-0.102-0.1l-0.199-0.5l-0.101-0.1l-0.8-0.102l-0.101-0.1
	l-0.399-0.602l-0.2-0.1l-0.1-0.301v-0.299l-0.102-0.201l-0.1-0.1l-0.4-0.201l-0.199-0.1l-0.301-0.301l-0.199-0.4l-0.301-0.299
	l-0.5-0.102v-0.1l-0.3-0.301l-0.3-0.299h-0.1v-0.301l0.101-0.5l-0.1-0.301l-0.101-0.199l-0.2-0.1l-0.199-0.201l-0.101-0.299l0.3-0.4
	v-0.301l-0.3-0.199l-0.399-0.4l-0.399-0.5l-0.2-0.398l0.3-0.4l-0.3-0.199l-0.5-0.102l-0.3-0.1l-0.3-0.4l-0.2-0.398l-0.101-0.301
	l-0.199-0.4v-0.199l0.1-0.201v-0.1l-0.1-0.1l-0.301-0.301l-0.301-0.301l-0.1-0.199v-0.4l-0.101-0.5l-0.399-0.5l-2.2-1.199
	l-0.399-0.1l-0.199-0.102v-0.398l-0.102-0.301V92.27h-0.199l-0.601-0.199l-0.399-0.301l-0.301-0.398l-0.199-0.5l0.101-0.5v-0.4
	l-0.3-0.6l-0.602-0.801l-0.199-1v-0.9l-0.101-0.1l-0.2-0.199l-0.1-0.201v-0.299l0.1-0.201l0.7-0.299l-1-0.4l-0.399-0.301l-0.301-0.6
	V83.77l0.102-0.6l-0.102-0.201l-0.199-0.199l-0.601-0.301l-0.2-0.199v-0.4l-0.699-1.199l-0.301-0.5l-0.398-2.5l-0.102-0.301
	l-0.1-0.1l-0.102-0.301l-0.1-0.102l-0.2-0.1l-0.3-0.1h-0.1l-0.101-0.201l0.102-0.301v-0.199l-0.101-0.102l-0.398-0.199v-0.1
	l-0.102-0.4l-0.3-0.301l-0.2-0.199l-0.1-0.199v-0.299l-0.102-0.301l-0.1-0.199l-0.1-0.199l0.198-0.5v-0.6l-0.398-1l-0.102-1.5
	l-0.198-0.301l-0.2-0.1l-0.3-0.102l-0.2-0.1l-0.102-0.1l-0.1-0.201l-1.101-1l-0.199-0.4l0.199-0.5l-0.399-0.898l-0.3-0.4l-0.4-0.398
	l-1.1-0.5l-0.102-0.201l-0.398-0.6l-0.5-0.5l-1.601-0.801l-0.3-0.199l-0.2-0.199l-0.1-0.201l-0.2-0.299v-0.4l-0.1-0.701l-0.102-0.4
	l-0.699-0.299l-1.399-0.6l-0.7-0.301l-0.399-0.602l-0.199-0.199h-0.2l-0.2-0.1l-0.2-0.201l-0.1-0.398l0.2-0.699v-0.701l-0.302-0.299
	h-0.5l-0.6,0.299l-0.4,0.301l-0.198-0.1v-0.4l0.198-0.5l0.102-0.4l-0.2-0.1l-0.6-0.1l-0.3-0.1l-0.199-0.201l-0.102-0.299
	l-0.199-0.602l-0.199-0.5l-0.3-0.5l-0.101-0.398l-0.1-0.301l0.1-0.301l-0.2,0.102h-0.2l-0.198,0.1l-0.3-0.1l-0.199-0.1l-0.102-0.4
	h-0.199l-0.399,0.102l-0.4,0.299l-0.398,0.201l-0.4-0.201V51.57l0.3-0.4v-0.4l-0.199-0.199l-0.101-0.102l-0.1,0.1l-0.101,0.5
	l-0.3,0.301l-0.399,0.1l-1.101,0.102l-3.6-0.801l-0.199-0.1v-0.301h-0.2l-0.2,0.199l-0.8-0.1l-0.399-0.199h-0.2l-0.199,0.1l-0.2,0.1
	l-0.2,0.102h-0.399l-0.3-0.201l-0.301-0.299l-0.3-0.102l-0.399,0.301l-0.601-0.199l-2.101,0.1l-0.8-0.4l-0.2-0.199l-1-0.602
	l-0.8-0.199l-0.301-0.102l-0.1-0.5l-0.4,0.102l-0.199-0.301l-0.301-0.301l-0.399-0.1l-0.199,0.1l-0.301,0.4l-0.199,0.1l-0.3,0.1
	l-0.199,0.1l-0.101,0.301l-0.101,0.602l-0.101,0.299l-0.601,0.701v0.1l-2.399-0.301h-0.199l-0.2,0.301l-0.3,0.199v0.1h-0.3
	l-0.101-0.299l-0.1-0.1l-0.4,0.199l-0.899,0.398h-1.299l-0.2,0.102l-0.101,0.199v0.199l-0.1,0.301l-0.7,1.1l-0.2,0.398h-0.1
	l-0.4,0.701l-0.199,0.4l-0.2,0.199l-0.3,0.1l0.101,0.301v0.1l-0.2,0.102l0.101,0.299l-0.2,0.201l-0.199,0.199l-0.8,1.801
	l-0.199,0.199l-0.101,0.301l-0.101,0.299v0.301l0.101,0.301v0.299l-0.301,0.301v0.199l0.101,0.301v0.1l-0.199,0.102l-0.1,0.1
	l-0.2-0.102l-0.101,0.102l-0.3,0.199l-0.101,0.1l-0.101,0.301v0.5l-0.399,0.9v0.398l0.101,0.201l0.5,0.398l0.2,0.301l-0.2,0.1
	l-0.7,0.102l-1,0.699l-0.199,0.199l-0.399-0.299l-0.5,0.299l-0.7,1.301l-0.2,0.199l-0.199,0.201l-0.9,0.398l-0.199,0.102
	l-0.101,0.199l-0.2,0.5l-0.1-0.1l-0.2,0.1l-0.2,0.801l-0.3,0.699l-0.601,0.301l-0.899-0.201l-1.2-0.5h-1.3l-0.3-0.299l0.1-0.5
	l-0.3,0.1l-0.101,0.1l-0.3-0.5h-0.2l-0.199,0.299l-0.301,0.102l-0.3-0.199l-0.6-0.6l-0.2-0.201l-0.199-0.1l-0.899-0.6l-1.101-1.201
	l-0.101-0.199l-0.101-0.199v-0.201l-0.2-0.199h-0.8l-1.899-0.699l-0.601-0.4l-1-1l-0.2-0.1l-0.3-0.102l-0.101-0.1l0.2-0.6
	l-0.101-0.201l-0.2-0.199l-0.199-0.1l-1.601-0.301l-1.399-0.4l-1.899-0.799l-0.801-0.602l-1-1.299l-0.7-0.4l-0.5-0.5l-0.7-0.9
	l-0.3-0.9l-0.1-0.1l-0.2-0.1l-0.5-0.5l-0.3-0.5l-0.601-0.201h-0.6l-0.399,0.201l-0.2-0.4l-1.699-1.301l-0.2-0.1l-0.101-0.102
	l-0.101-0.199v-0.301l-0.1-0.1l-0.301-0.4l-1-0.799l-0.3-0.4v-0.9l-0.101-0.301l-0.399-0.801l-0.101-1.1l-0.2-0.4l-0.4-0.398
	l-0.3-0.5l-0.101-0.201l-0.2-1.199l-0.399-0.6l-0.101-0.201v-0.199l-0.3-0.301v-0.199l-0.101-0.201l0.101-0.398v-0.201l-0.2-1.5
	v-0.602l0.101-0.5l0.399-0.898l0.101-0.602l0.101-0.898v-0.602l-0.3-0.398l-0.301-0.9l-0.199-0.301l-0.399-0.199l-0.1-0.1l-0.2-0.5
	l-0.2-0.801l-0.3-0.602l-0.399-0.299l-0.101-0.1v-0.602l-0.101-0.201l-0.101-0.197l-0.3-0.201l-0.101-0.199l-0.199-0.301v-0.102
	l0.1-0.197v-0.602l-0.199-0.398v-0.4l0.199-0.301v-0.199l-0.1-0.1l-0.301-0.303v-0.801l-0.101-0.199l-0.199-0.5l-0.601-0.801
	l-0.101-0.299l-0.101-0.1l-0.699-0.201l-0.2-0.102l-0.101-0.197V23.76l-0.101-0.299V23.26l-0.199-0.398l-0.399-0.4l-0.5-0.299
	l-0.4-0.1l-0.399-0.201l-0.899-1.4l-0.101,0.2l-0.3-0.3l-0.101-0.102h-0.101v-0.3l-0.101-0.1l-0.1-0.101l-0.2-0.101l-0.3-0.1
	l-0.101-0.4l-0.2-0.1h-0.101l-0.199-0.102h-0.101l-0.2,0.2h-0.199l-0.2-0.1l-0.101-0.102l-0.1-0.2l-0.2-0.101l-1.2-0.8l-0.6-0.2
	l-0.2-0.3l-0.8-1.2l-1.602-1.5l-0.699-1l-0.5-0.3l-0.2-0.4l-0.2-0.9l-0.2-0.5l-0.3-0.3l-0.4-0.301l-0.399-0.399l-0.4-0.6l-0.2-0.2
	l-0.3-0.101l-1.601-1.3l-0.199-0.301l-0.101-0.5l-1.399-2.199l-0.4-0.301l-0.3-0.199V4.755l-0.3-0.2l-0.4-0.3l-0.1-0.2l-0.101-0.5
	l-0.101-0.199l-0.3-0.301l-0.8-0.699l-0.4-0.2l-0.5-0.101l-0.399-0.199l-0.699-0.601l-0.9-0.301l-0.5-0.3l-0.2-0.3l-0.699-0.601
	l-0.101-0.1v-0.3l-0.101-0.301l-0.199-0.399l-0.801-1.199l-0.199-0.399l-0.301-1.9l-0.4-0.8l-0.399-1l-0.7-0.8l-0.699-0.4h-1
	l-0.4-0.2l-1.199-1.5l-0.2-0.199l-0.3-0.101l-0.301-0.1l-0.1-0.301l-0.101-0.3l0.101-0.2l-0.4-0.8l-0.1-0.5v-0.6l-0.101-0.5
	l-0.301-1v-0.4h0.4l0.5,0.101l4.8,0.5l4.8,0.5l4.801,0.5l4.8,0.5l4.801,0.5l4.8,0.5l4.8,0.399l4.801,0.5l4.8,0.399l4.801,0.5
	l4.8,0.399l4.7,0.399l4.8,0.4l4.8,0.399l4.899,0.3l4.801,0.4l0.199-3.602l0.301-3.5l0.3-3.5l0.3-3.6l0.301-3.5l0.199-3.601
	l0.301-3.5l0.3-3.601l0.3-3.5l0.199-3.5l0.301-3.6l0.3-3.5l0.3-3.602l0.301-3.5l0.199-3.6l0.301-3.5l0.3-3.5l0.301-3.601l0.3-3.5
	l0.2-3.601l0.3-3.5l0.3-3.601l0.301-3.5l0.199-3.5l0.301-3.601l0.3-3.5l0.301-3.6l0.3-3.5l0.2-3.602l0.3-3.5l0.3-3.5l0.301-3.6v-1.2
	h1.599l1.899,0.2l2.9,0.2l3.899,0.3l4.5,0.3l5.101,0.3l5.399,0.302l5.601,0.398l5.5,0.3l5.5,0.302l5,0.198l4.6,0.302l3.801,0.1
	l3,0.2l1.899,0.1h2l-0.1,1.3l-0.102,2.9l-0.1,2.9l-0.101,2.898l-0.101,2.9l-0.2,2.898l-0.1,2.9l-0.102,2.899l-0.1,2.899l-0.101,2.9
	l-0.2,2.899l-0.102,2.9l-0.1,2.898l-0.101,2.9l-0.101,3l-0.1,2.9l-0.2,2.898v1.401h0.3l1-0.102l0.3,0.102l0.2,0.1l0.399,0.102
	l0.2,0.198l3.399,3.5l0.4,0.7l0.3,0.3l0.398,0.102l1.2,0.2l0.4-0.102l0.2-0.1l0.199-0.3l0.199-0.102l0.2-0.1l1,0.2l0.8,0.5
	l0.4,0.198l0.5,0.102l0.3-0.2l0.2-0.4l0.2-1.198l0.2-0.302h0.3l0.398,0.302l0.102,0.198l0.1,0.102v0.2l0.2,0.198l0.2,0.102l0.2,0.1
	h0.398l0.4,0.2l0.2,0.4l0.1,0.398l0.2,0.4l0.6,0.7l0.4,0.398l-0.102,0.2l-0.1,0.3v1.4l0.1,0.398l0.302,0.302l0.5,0.1h1l0.398,0.1
	l0.8,0.302h0.9l0.3-0.2h0.4l0.398,0.1l1.602,1.102l0.398,0.198l2.601,0.601l0.3,0.2l1.399-0.602l0.5-0.1l0.301,0.1l0.6,0.102
	l0.3,0.198l0.302,0.602l0.1,0.1l0.3,0.2l0.7,0.9l0.3,0.198h1l0.601-0.1l0.101-0.2l0.3-0.398l0.3-0.5l0.3-0.4l0.5-0.1l2.9,0.398h0.6
	l1-0.398h0.5l0.4,0.3l-0.1,0.6l-0.102,0.801l0.102,0.5l0.1,0.899l0.8,0.4l1,0.198l0.7,0.302h0.2l0.2,0.198v0.2l-0.102,0.3
	l0.102,0.302v0.3l-0.102,0.5l-0.1,0.3v0.1l-0.1,0.4l0.198,0.2l0.5,0.3l0.9,0.3l0.899-0.1l0.899-0.5l1.8-1.8l0.8-0.601l0.801-0.3
	l0.8,0.4l0.2,0.5l-0.102,0.898l0.2,0.5l0.3,0.2l1.4-0.1l0.5,0.1l0.3,0.2l0.2,0.3v0.6l0.1,0.602l0.4,0.2l1.3-0.102l0.3-0.1
	l0.102-0.102l0.1-0.1l0.3-0.1l0.102-0.102v-0.1l0.199-0.3v-0.101l0.301-0.2l0.3,0.102l0.6,0.5l0.102-0.2l0.398-0.6v-0.2l0.102-0.102
	l0.1-0.1l0.3-0.1l0.102-0.102l0.3,0.2l0.2,0.3l0.198,0.2l0.102,0.399l-0.102,0.399l-0.5,0.601l-0.1,0.5l0.1,0.601l0.302,0.7
	l0.398,0.5l0.5,0.398l0.7-0.1l0.4-0.4l0.199-0.6v-0.8l0.101-0.2l0.5-0.3v-0.4l-0.2-0.1l-0.1-0.2l-0.102-0.4l0.801,0.2l0.399-0.1
	l0.4-0.4l0.3-0.7l0.1-0.7v-0.3l0.102-0.2h0.1l0.1-0.1l0.802-0.1h0.399l0.2,0.1l0.2,0.2l0.1,0.1l0.102,0.2l0.1,0.8l0.1,0.2l0.102,0.2
	l0.3,0.3l0.1,0.101h0.301l0.801-0.101l0.199,0.101l0.199,0.101l0.5,0.399l0.102,0.101h0.898l0.2-0.101l0.101-0.101h0.101l0.1-0.1
	l0.102-0.102v-0.2l0.3-0.8l0.2-0.2v-0.1h0.699l0.5,0.3l0.199,0.2v0.1l-0.199,0.5l-0.101,0.102v0.1l0.101,0.2v0.101l0.101,0.101
	l0.3,0.3l0.8,0.2l0.5,0.3l0.102,0.102l0.1,0.198v0.2l0.101,0.2l0.199,0.1l1.4-0.1l0.399,0.1l0.5,0.602l0.601,1l0.6,0.6l0.601-0.398
	l0.101-0.602v-0.3l0.2-0.3h0.5l0.899,0.1l0.399-0.1l0.4-0.2l0.199-0.4l0.399-0.898l0.2-0.102l0.2-0.1l0.5-0.2l0.199-0.1h1.301
	l0.8-0.3l0.399-0.302l0.301-0.198h0.1l0.101-0.2l0.199-0.2l0.301-0.2l0.199,0.102l0.301,0.198l1.199,0.802l0.2,0.1l0.601-0.1
	l0.101-0.2l0.1-0.102l0.2-0.1l0.101,0.2l0.101,0.1l0.199,0.102l0.2-0.2l-0.101-0.7l0.2-0.2h1.2l0.1-0.2l0.3-0.1l0.2-0.2h0.2l0.5-0.3
	h0.1l0.301,0.1h0.199l0.301-0.5l0.199-0.199l0.301,0.101l0.3,0.2l0.2,0.2l0.3,0.198l0.101,0.4l-0.2,0.3l0.301,0.2h0.699v0.1
	l0.101,0.102l0.101,0.1h0.101l0.1-0.1l0.101-0.102h0.2l0.101,0.102l0.199,0.1l0.101,0.2h2.2l0.1-0.1l0.101-0.102l0.101-0.1v-0.4h0.2
	l0.199,0.102l0.301-0.102l0.199-0.1l0.101-0.102l0.101-0.199l0.3,0.199l0.101-0.3v-0.5l0.101-0.398l0.399-0.302h0.399l1.399,0.4
	l0.2,0.2l0.101,0.1l0.101,0.2l0.1,0.2l0.7,0.1l0.399,0.3l0.7,0.602l0.3,0.3l0.301,0.1h0.9l0.199,0.2l0.101,0.102l0.101,0.1v0.4
	l0.2,0.198h0.199l0.2,0.2l0.101,0.102l0.3,0.6l0.8,0.8l1.4,0.2l0.5,0.2h0.3l0.3,0.1l0.3,0.602l0.4,0.199l0.2,0.199l0.1,0.102
	l0.2-0.102l0.2-0.1h0.199l0.301,0.1l0.199,0.102l0.301,0.1l0.199,0.2l0.5-0.1l0.5,0.1l-0.101,0.1l-0.1,0.102l0.3,0.2l1.101,0.3v-0.2
	l0.3,0.2h0.7l0.4,0.1l0.2,0.5l0.1,0.5l0.4,0.4l0.6,0.1l0.5-0.1v0.2l-0.3,0.198l0.2,0.302l0.399,0.1l0.399-0.3l0.5,0.3l0.2-0.3
	l0.1-0.4l0.2-0.3h0.399l1,0.5l0.301-0.1l0.3-0.302l0.3-0.1l0.7,0.4l0.399,0.1h0.5l0.399-0.2l0.601,0.4l0.301,0.2l0.199,0.1
	l0.101,1.6l0.101,3.102l0.101,3v3.1l0.1,3l0.101,3v3l0.101,3l0.1,3v3l0.102,3v3l0.1,3v2l0.1,0.102l0.102,0.1l0.3,0.2l0.1,0.1
	l0.302,0.2l0.1,0.101l0.5,0.801l0.1,0.1l0.102,0.101l0.1,0.101l0.7,0.3l0.2,0.2l0.398,0.399l0.302,0.399l0.198,0.3l0.102,0.301
	l0.1,0.199l0.2,0.301l0.5,0.8l0.1,0.301l0.2,0.899l0.102,0.3v0.2l0.1,0.101l0.1,0.1l0.102,0.101v0.301l-0.102,0.399l-0.1,0.199v1.1
	l-0.1,0.2l-0.102,0.199v0.4l0.102,0.3l0.1,0.101l0.1,0.199l0.2,0.301l0.601,0.699l0.199,0.101l0.102,0.101h0.1l0.601,0.2h0.101
	l0.1,0.1l0.101,0.101v0.2l-0.101,0.101v0.1h-0.1l-0.2,0.2v0.101l-0.1,0.1l0.1,0.2v0.101l0.101,0.101l0.101,0.1h0.1l0.301,0.101
	h0.101l0.1,0.101v0.2l0.101,0.199l0.101,0.399v0.2l0.101,0.2l0.199,0.3l0.4,0.3l0.3,0.2v0.2l-0.2,0.3l-0.1,0.101l-0.101,0.3v0.601
	l0.101,0.101l0.1,0.101l0.601,0.5l0.2,0.3l0.101,0.1v0.102l0.1,0.1v0.2l0.101,0.2l0.101,0.1l0.101,0.2v0.2l0.1,0.6l0.101,0.2v0.1
	h0.101l0.1,0.102h0.201l0.4-0.102l0.398,0.102l0.102,0.398v1.102l-0.102,0.3l-0.199,0.3v0.3l0.601,0.9l0.3,0.3l0.101,0.201
	l-0.101,0.199l-0.1,0.199l-0.602,0.199h-0.199l-0.301,0.301l0.2,0.602l0.3,0.5l0.2,0.199l0.2,0.301l-0.101,0.1l-0.101,0.299
	l-0.3,0.303l-0.2,0.197l-0.1,0.303v0.299l0.199,0.5v0.801l-0.101,0.4l-0.8,1.5l-0.101,1.197l-0.199,0.4l-0.801,0.6l-0.199,0.4
	l-0.2,1.301l-0.101,0.299l-0.399,0.102l-0.3,0.301l-0.2,0.5v0.6l0.2,0.102l0.1,0.1v0.602l0.301,0.697v0.701l-0.2,0.4l-0.5,0.6
	l-0.3,0.602l-0.101,0.5l0.101,1.1l0.199,0.4l0.4,0.299l0.3,0.398l0.101,0.602l-0.101,0.201l-0.2,0.5v0.299l0.101,0.301l0.2,0.299
	v0.201l0.101,0.5l0.1,0.299v0.5l-0.1,0.5l-0.301,0.602v0.199l0.2,0.301l-1.301,1.5L-26.6,48.387z"/>
<g>
	<g>
		<polygon fill="#FFFFFF" points="14.713,1.89 14.749,18.18 3.783,18.198 9.746,24.846 10.927,27.149 14.415,29.112 16.583,26.286 
			19.921,26.221 27.787,37.821 33.539,39.761 33.851,39.073 32.933,35 33.45,33.154 43.425,25.096 44.023,19.628 42.207,16.866 
			41.558,11.255 30.728,10.92 23.589,8.916 23.47,1.915 		"/>
		<path fill="#231F20" d="M34.343,41.615l-7.515-2.534l-7.692-11.345l-1.803,0.035l-2.521,3.286l-5.014-2.822L8.5,25.703
			l-8.072-8.999l12.818-0.022L13.21,0.385l11.735,0.034l0.125,7.354l5.887,1.652l11.942,0.37l0.756,6.544l1.917,2.914l-0.724,6.62
			l-10.084,8.146l-0.286,1.02l0.946,4.195L34.343,41.615z M28.745,36.562l3.25,1.096l-0.607-2.697l0.748-2.672l9.867-7.971
			l0.472-4.316l-1.716-2.608l-0.541-4.679l-9.894-0.35l-8.214-2.307L21.996,3.41l-5.779-0.017l0.035,16.283l-9.114,0.016
			l3.942,4.469l0.976,1.902l1.96,1.104l1.815-2.366l4.875-0.096L28.745,36.562z"/>
	</g>
	<polyline fill="none" stroke="#231F20" stroke-width="3" stroke-miterlimit="10" points="16.328,26.618 23.542,17.39 
		29.034,23.325 39.579,11.193 	"/>
</g>
</svg>
